<svg xmlns="http://www.w3.org/2000/svg" viewBox="0 0 900 620"><defs><radialGradient id="g" cx="38%" cy="32%"><stop stop-color="#72f6ff" stop-opacity=".9"/><stop offset=".32" stop-color="#2b8cff" stop-opacity=".55"/><stop offset="1" stop-color="#050816" stop-opacity="0"/></radialGradient><linearGradient id="a" x1="0" x2="1"><stop stop-color="#42f5c7"/><stop offset="1" stop-color="#5be7ff"/></linearGradient></defs><rect width="900" height="620" fill="#030610"/><circle cx="470" cy="305" r="240" fill="url(#g)"/><circle cx="470" cy="305" r="185" fill="#07162e" stroke="#52eaff" stroke-opacity=".45"/><ellipse cx="470" cy="305" rx="185" ry="72" fill="none" stroke="url(#a)" stroke-opacity=".42"/><ellipse cx="470" cy="305" rx="185" ry="120" fill="none" stroke="#55cfff" stroke-opacity=".22"/><ellipse cx="470" cy="305" rx="92" ry="185" fill="none" stroke="#41e8c4" stroke-opacity=".2"/><path d="M286 305h368M322 235h296M322 375h296" stroke="#63eaff" stroke-opacity=".16"/><g fill="#7ffaff"><circle cx="344" cy="255" r="4"/><circle cx="532" cy="220" r="5"/><circle cx="570" cy="348" r="4"/><circle cx="405" cy="391" r="3"/></g><path d="M235 470C390 570 650 550 735 420" fill="none" stroke="#4df1ca" stroke-width="2" stroke-opacity=".35"/><g fill="#fff"><circle cx="88" cy="90" r="2"/><circle cx="170" cy="180" r="1.5"/><circle cx="760" cy="110" r="2"/><circle cx="820" cy="280" r="1.5"/><circle cx="120" cy="430" r="1.5"/></g></svg>
